# xmcd
#
# Track frame offsets: 
#        182
#        19885
#        34007
#        53672
#        67080
#        82542
#        99120
#        113707
#        127797
#        141422
#
# Disc length: 2090 seconds
#
# Revision: 5
# Processed by: cddbd v1.5.2PL0 Copyright (c) Steve Scherf et al.
# Submitted via: ExactAudioCopyFreeDBPlugin 1.0
#
DISCID=7308290a,7408280a,85082d0a
DTITLE=ZZ Top - Tejas
DYEAR=1976
DGENRE=Blues Rock
TTITLE0=It's Only Love
TTITLE1=Arrested For Driving While Blind
TTITLE2=El Diablo
TTITLE3=Snappy Kakkie
TTITLE4=Enjoy And Get It On
TTITLE5=Ten Dollar Man
TTITLE6=Pan Am Highway Blues
TTITLE7=Avalon Hideaway
TTITLE8=She's A Heartbreaker
TTITLE9=Asleep In The Desert
EXTD=YEAR: 1976
EXTT0=
EXTT1=
EXTT2=
EXTT3=
EXTT4=
EXTT5=
EXTT6=
EXTT7=
EXTT8=
EXTT9=
PLAYORDER=
